<?xml version="1.0" encoding="utf-8"?>
<!-- Generator: Adobe Illustrator 16.0.0, SVG Export Plug-In . SVG Version: 6.00 Build 0)  -->
<!DOCTYPE svg PUBLIC "-//W3C//DTD SVG 1.1//EN" "http://www.w3.org/Graphics/SVG/1.1/DTD/svg11.dtd">
<svg version="1.1" id="Layer_1" xmlns="http://www.w3.org/2000/svg" xmlns:xlink="http://www.w3.org/1999/xlink" x="0px" y="0px"
	 width="32px" height="32px" viewBox="0 0 32 32" enable-background="new 0 0 32 32" xml:space="preserve">
<path fill="#303335" d="M16.013,5.734c3.701,0,6.7,3.442,6.7,6.588c0,0.018,0,0,0,0H9.314c0,0,0,0.001,0,0
	C9.314,9.178,12.313,5.734,16.013,5.734z"/>
<path fill="#303335" d="M9.314,13.185h13.399v9.182c0,1.936-1.6,3.505-3.573,3.505h-6.253c-1.973,0-3.573-1.569-3.573-3.505V13.185z
	"/>
<path fill="#303335" d="M17.354,24.993h1.786v3.505h-1.786V24.993z"/>
<path fill="#303335" d="M12.887,24.993h1.787v3.505h-1.787V24.993z"/>
<path fill="#303335" d="M8.42,11l-2.233,2.009v7.232L8.42,22.25V11z"/>
<path fill="#303335" d="M23.829,11l2.233,2.009v7.232l-2.233,2.009V11z"/>
<path fill="#303335" d="M17.584,7.716l2.482-4.217l0.772,0.438l-2.481,4.217L17.584,7.716z"/>
<path fill="#303335" d="M13.936,7.832l-2.667-4.201L10.5,4.033l2.666,4.202L13.936,7.832z"/>
<path fill="#FFFFFF" d="M18.75,7.944c0.689,0,1.25,0.549,1.25,1.226c0,0.677-0.561,1.226-1.25,1.226S17.5,9.847,17.5,9.17
	C17.5,8.493,18.061,7.944,18.75,7.944z"/>
<path fill="#FFFFFF" d="M13.25,7.944c0.69,0,1.25,0.549,1.25,1.226c0,0.677-0.56,1.226-1.25,1.226S12,9.847,12,9.17
	C12,8.493,12.56,7.944,13.25,7.944z"/>
</svg>
