<?xml version="1.0" encoding="utf-8"?>
<!-- Generator: Adobe Illustrator 17.1.0, SVG Export Plug-In . SVG Version: 6.00 Build 0)  -->
<!DOCTYPE svg PUBLIC "-//W3C//DTD SVG 1.1//EN" "http://www.w3.org/Graphics/SVG/1.1/DTD/svg11.dtd">
<svg version="1.1" id="레이어_1" xmlns="http://www.w3.org/2000/svg" xmlns:xlink="http://www.w3.org/1999/xlink" x="0px"
	 y="0px" viewBox="0 0 32 32" enable-background="new 0 0 32 32" xml:space="preserve">
<g>
	<g>
		<polygon fill-rule="evenodd" clip-rule="evenodd" points="24.6,0 7.4,0 0,12.2 3,32 8.1,31.8 7.6,27.2 10.3,27.2 10.6,32 21.4,32 
			21.7,27.2 24.4,27.2 23.9,31.8 29,32 32,12.2 		"/>
	</g>
</g>
<path fill-rule="evenodd" clip-rule="evenodd" fill="#FFFFFF" d="M8.7,7h4.7l-0.3,2.3h5.9L18.6,7h4.5l2.9,6l-1.3,12H7.3L6,13L8.7,7z
	"/>
<g>
	<g>
		<path fill-rule="evenodd" clip-rule="evenodd" d="M11.9,14.8c-0.3,0-0.6,1.1-0.6,2.6c0,1.4,0.3,2.6,0.6,2.6c0.3,0,0.6-1.1,0.6-2.6
			C12.5,16,12.3,14.8,11.9,14.8z M19.7,14.8c-0.3,0-0.6,1.1-0.6,2.6c0,1.4,0.3,2.6,0.6,2.6c0.3,0,0.6-1.1,0.6-2.6
			C20.3,16,20,14.8,19.7,14.8z"/>
	</g>
</g>
</svg>
