<?xml version="1.0" encoding="utf-8"?>
<!-- Generator: Adobe Illustrator 16.0.0, SVG Export Plug-In . SVG Version: 6.00 Build 0)  -->
<!DOCTYPE svg PUBLIC "-//W3C//DTD SVG 1.1//EN" "http://www.w3.org/Graphics/SVG/1.1/DTD/svg11.dtd">
<svg version="1.1" id="Layer_1" xmlns="http://www.w3.org/2000/svg" xmlns:xlink="http://www.w3.org/1999/xlink" x="0px" y="0px"
	 width="36px" height="36px" viewBox="0 0 36 36" enable-background="new 0 0 36 36" xml:space="preserve">
<g>
	<path fill-rule="evenodd" clip-rule="evenodd" fill="#FFFFFF" d="M8,30c-3.86,0-7-3.141-7-7s3.14-7,7-7s7,3.141,7,7S11.86,30,8,30z
		"/>
	<path fill="#303335" d="M8,17c3.309,0,6,2.691,6,6s-2.691,6-6,6s-6-2.691-6-6S4.691,17,8,17 M8,15c-4.418,0-8,3.582-8,8
		s3.582,8,8,8s8-3.582,8-8S12.418,15,8,15L8,15z"/>
</g>
<path fill-rule="evenodd" clip-rule="evenodd" fill="#303335" d="M8,22.502c4.418,0,7.114-3.157,7.114-3.157
	c0,4.418-2.696,4.892-7.114,4.892c-4.418,0-7.115-0.474-7.115-4.892C0.885,19.343,3.582,22.502,8,22.502z"/>
<path fill-rule="evenodd" clip-rule="evenodd" fill="#303335" d="M20.729,18.065c1.481-1.366,3.729-1.205,5.023,0.357l9.369,11.316
	c1.292,1.562,1.142,3.936-0.34,5.301c-1.48,1.365-3.729,1.205-5.021-0.357l-9.369-11.315C19.099,21.805,19.249,19.431,20.729,18.065
	z"/>
<path fill-rule="evenodd" clip-rule="evenodd" fill="#FFFFFF" d="M19.332,23.387l6-4l-2-5l-4-4l-6-2l-6-1l-1,4l1,5l2,4l8,3H19.332z"
	/>
<path fill-rule="evenodd" clip-rule="evenodd" fill="none" stroke="#303335" stroke-width="2" stroke-miterlimit="10" d="M6.492,7.5
	c7.833,0,19.008,4.045,19.008,14.988"/>
<g>
	<path fill="#303335" d="M16.831,2c5.514,0,10,4.486,10,10s-4.486,10-10,10c-5.514,0-10-4.486-10-10S11.317,2,16.831,2 M16.831,0
		c-6.627,0-12,5.373-12,12c0,6.627,5.373,12,12,12c6.627,0,12-5.373,12-12C28.831,5.373,23.458,0,16.831,0L16.831,0z"/>
</g>
<path fill-rule="evenodd" clip-rule="evenodd" fill="#FFFFFF" d="M25.512,21.11c0.212-0.178,0.528-0.148,0.704,0.063l7.684,9.219
	c0.176,0.212,0.147,0.526-0.064,0.703c-0.212,0.178-0.528,0.148-0.704-0.064l-7.684-9.218C25.271,21.602,25.3,21.287,25.512,21.11z"
	/>
<path fill-rule="evenodd" clip-rule="evenodd" fill="#303335" d="M14.22,13.345c1.656,0,3,1.343,3,3c0,1.656-1.344,3-3,3
	c-1.657,0-3-1.344-3-3C11.22,14.688,12.563,13.345,14.22,13.345z"/>
<path fill-rule="evenodd" clip-rule="evenodd" fill="#FFFFFF" d="M15.114,14.387c0.553,0,1,0.448,1,1c0,0.553-0.447,1-1,1
	c-0.552,0-1-0.447-1-1C14.114,14.835,14.562,14.387,15.114,14.387z"/>
</svg>
