<?xml version="1.0" encoding="utf-8"?>
<!-- Generator: Adobe Illustrator 16.0.0, SVG Export Plug-In . SVG Version: 6.00 Build 0)  -->
<!DOCTYPE svg PUBLIC "-//W3C//DTD SVG 1.1//EN" "http://www.w3.org/Graphics/SVG/1.1/DTD/svg11.dtd">
<svg version="1.1" id="Layer_1" xmlns="http://www.w3.org/2000/svg" xmlns:xlink="http://www.w3.org/1999/xlink" x="0px" y="0px"
	 width="36px" height="36px" viewBox="0 0 36 36" enable-background="new 0 0 36 36" xml:space="preserve">
<path fill-rule="evenodd" clip-rule="evenodd" fill="#303335" d="M18,0c9.941,0,18,8.059,18,18c0,9.942-8.059,18-18,18
	S0,27.941,0,18C0,8.058,8.059,0,18,0z"/>
<path fill-rule="evenodd" clip-rule="evenodd" fill="#E8EEF2" d="M18,5.539c6.883,0,12.461,5.579,12.461,12.461
	c0,1.436-0.242,2.814-0.689,4.098c-0.181,0.521-0.695,1.441-0.695,1.441s-4.215-0.632-6.922,1.384
	c-1.536,1.144-2.77,5.538-2.77,5.538s-0.898,0-1.385,0c-0.496,0-1.385,0-1.385,0s-1.144-4.499-2.769-5.538
	c-2.805-1.792-6.924-1.384-6.924-1.384s-0.424-0.891-0.599-1.351C5.827,20.884,5.539,19.496,5.539,18
	C5.539,11.118,11.118,5.539,18,5.539z"/>
<g>
	<g>
		<path fill-rule="evenodd" clip-rule="evenodd" fill="#303335" d="M17.943,4.998h-1.385v5.539h1.385V4.998z M25.989,7.421
			l-3.917,3.916l0.979,0.979L26.969,8.4L25.989,7.421z M25.615,16.064v1.385h5.539v-1.385H25.615z M4.846,17.449h5.538v-1.385H4.846
			V17.449z M7.939,9.07l3.916,3.917l0.979-0.979L8.918,8.091L7.939,9.07z M15.715,14.923c-0.024-1.001,0,2.996,0,5.539
			c0,2.985,2.77,2.77,2.77,2.77c1.38,0,2.436-2.584,1.385-4.154L15.715,14.923z"/>
	</g>
</g>
</svg>
