<?xml version="1.0" encoding="utf-8"?>
<!-- Generator: Adobe Illustrator 16.0.0, SVG Export Plug-In . SVG Version: 6.00 Build 0)  -->
<!DOCTYPE svg PUBLIC "-//W3C//DTD SVG 1.1//EN" "http://www.w3.org/Graphics/SVG/1.1/DTD/svg11.dtd">
<svg version="1.1" xmlns="http://www.w3.org/2000/svg" xmlns:xlink="http://www.w3.org/1999/xlink" x="0px" y="0px" width="36px"
	 height="36px" viewBox="0 0 36 36" enable-background="new 0 0 36 36" xml:space="preserve">
<g id="Layer_3">
	<path fill-rule="evenodd" clip-rule="evenodd" fill="#303335" d="M21,11.607l3.999,18.831c0,0,0.362,2.07-0.276,2.503
		C22.805,34.24,20.49,35,18,35c-2.486,0-4.795-0.755-6.71-2.049C10.645,32.516,11.001,30,11.001,30L15,11.607H21z"/>
	<path fill-rule="evenodd" clip-rule="evenodd" fill="#303335" d="M18,4c3.312,0,6,2.687,6,6c0,3.314-2.688,6-6,6
		c-3.314,0-6-2.686-6-6C12,6.687,14.686,4,18,4z"/>
</g>
<g id="Layer_2">
	<g>
		<path fill-rule="evenodd" clip-rule="evenodd" fill="#FFFFFF" d="M9.875,34.755c-2.842-0.811-5.263-2.577-6.891-5.048
			c-1.77-2.687-2.384-5.892-1.73-9.025C2.424,15.072,7.49,11,13.301,11c0.501,0,1.005,0.031,1.506,0.091L9.875,34.755z M9.02,28.199
			c-0.552,0-1,0.448-1,1c0,0.553,0.448,1,1,1s1-0.447,1-1C10.02,28.647,9.572,28.199,9.02,28.199z"/>
		<path fill="#303335" d="M13.303,10v2c0.097,0,0.195,0.001,0.293,0.004l-4.47,21.445c-2.168-0.846-4.011-2.326-5.307-4.292
			c-1.622-2.463-2.186-5.399-1.586-8.271C3.306,15.737,7.961,12,13.302,12L13.303,10 M13.301,10C7.113,10,1.569,14.272,0.275,20.478
			c-1.48,7.094,3.162,14.032,10.368,15.493L16,10.272l0,0C15.094,10.088,14.191,10,13.301,10L13.301,10z M15.968,10.265
			c0,0,0.012,0.003,0.021,0.005C15.974,10.266,15.968,10.265,15.968,10.265L15.968,10.265z M15.989,10.27L15.989,10.27L15.989,10.27
			L15.989,10.27z M15.989,10.27c0.001,0,0.003,0.001,0.004,0.001C15.992,10.271,15.991,10.27,15.989,10.27L15.989,10.27z
			 M15.993,10.271L15.993,10.271L15.993,10.271L15.993,10.271z M15.994,10.271L15.994,10.271L15.994,10.271L15.994,10.271z
			 M15.994,10.271L15.994,10.271L15.994,10.271L15.994,10.271z M15.994,10.271L15.994,10.271L15.994,10.271L15.994,10.271z
			 M15.994,10.271C15.994,10.271,15.994,10.271,15.994,10.271C15.994,10.271,15.994,10.271,15.994,10.271L15.994,10.271z
			 M15.994,10.271C15.994,10.271,15.994,10.271,15.994,10.271C15.994,10.271,15.994,10.271,15.994,10.271L15.994,10.271z
			 M15.994,10.271C15.995,10.271,15.995,10.271,15.994,10.271C15.995,10.271,15.995,10.271,15.994,10.271L15.994,10.271z
			 M15.995,10.271C15.995,10.271,15.995,10.271,15.995,10.271C15.995,10.271,15.995,10.271,15.995,10.271L15.995,10.271z
			 M15.996,10.271L15.996,10.271L15.996,10.271L15.996,10.271z M15.996,10.271C15.996,10.271,15.996,10.271,15.996,10.271
			C15.996,10.271,15.996,10.271,15.996,10.271L15.996,10.271z M15.997,10.271L15.997,10.271L15.997,10.271L15.997,10.271z
			 M15.997,10.271C15.997,10.271,15.998,10.271,15.997,10.271C15.998,10.271,15.997,10.271,15.997,10.271L15.997,10.271z
			 M15.998,10.271C15.998,10.271,15.998,10.271,15.998,10.271C15.998,10.271,15.998,10.271,15.998,10.271L15.998,10.271z
			 M15.998,10.271L15.998,10.271L15.998,10.271L15.998,10.271z M15.998,10.271L15.998,10.271L15.998,10.271L15.998,10.271z
			 M15.998,10.271C15.998,10.271,15.999,10.271,15.998,10.271C15.999,10.271,15.998,10.271,15.998,10.271L15.998,10.271z
			 M15.999,10.272L15.999,10.272L15.999,10.272L15.999,10.272z M15.999,10.272L15.999,10.272L15.999,10.272L15.999,10.272z
			 M15.999,10.272L15.999,10.272L15.999,10.272L15.999,10.272z M15.999,10.272C15.999,10.272,15.999,10.272,15.999,10.272
			C15.999,10.272,15.999,10.272,15.999,10.272L15.999,10.272z M15.999,10.272L15.999,10.272L15.999,10.272L15.999,10.272z
			 M15.999,10.272L15.999,10.272L15.999,10.272L15.999,10.272z M15.999,10.272L15.999,10.272L15.999,10.272L15.999,10.272z
			 M15.999,10.272C16,10.272,16,10.272,15.999,10.272L15.999,10.272C16,10.272,16,10.272,15.999,10.272L15.999,10.272z
			 M10.643,35.971L10.643,35.971L10.643,35.971z M10.643,35.971L10.643,35.971L10.643,35.971L10.643,35.971z M10.643,35.971
			L10.643,35.971L10.643,35.971L10.643,35.971z M10.643,35.971L10.643,35.971L10.643,35.971L10.643,35.971z M10.643,35.971
			L10.643,35.971L10.643,35.971L10.643,35.971z M10.643,35.971L10.643,35.971L10.643,35.971L10.643,35.971z M10.643,35.971
			L10.643,35.971L10.643,35.971L10.643,35.971z M10.643,35.971L10.643,35.971L10.643,35.971L10.643,35.971z M10.643,35.971
			L10.643,35.971L10.643,35.971L10.643,35.971z M10.643,35.971L10.643,35.971L10.643,35.971L10.643,35.971z M10.643,35.971
			L10.643,35.971L10.643,35.971L10.643,35.971z M10.643,35.972L10.643,35.972L10.643,35.972L10.643,35.972z M10.643,35.972
			L10.643,35.972L10.643,35.972L10.643,35.972z M10.643,35.972L10.643,35.972L10.643,35.972L10.643,35.972z M10.643,35.972
			L10.643,35.972L10.643,35.972L10.643,35.972z M10.643,35.972L10.643,35.972L10.643,35.972L10.643,35.972z M10.643,35.972
			L10.643,35.972L10.643,35.972L10.643,35.972z M10.643,35.972L10.643,35.972L10.643,35.972L10.643,35.972z M10.643,35.972
			L10.643,35.972L10.643,35.972L10.643,35.972z M10.643,35.972c0,0.001,0,0.001,0,0.002C10.643,35.973,10.643,35.973,10.643,35.972
			L10.643,35.972z M10.643,35.974L10.643,35.974L10.643,35.974L10.643,35.974z M10.643,35.974
			C10.644,35.974,10.644,35.975,10.643,35.974C10.644,35.975,10.644,35.974,10.643,35.974L10.643,35.974z M10.644,35.975
			L10.644,35.975L10.644,35.975L10.644,35.975z M10.644,35.976L10.644,35.976L10.644,35.976L10.644,35.976z M10.644,35.976
			L10.644,35.976L10.644,35.976L10.644,35.976z M10.644,35.976c0,0.008,0.002,0.022,0.002,0.023
			C10.646,35.999,10.645,35.992,10.644,35.976L10.644,35.976z M10.646,35.999L10.646,35.999L10.646,35.999L10.646,35.999z
			 M10.646,35.999L10.646,35.999L10.646,35.999L10.646,35.999z"/>
	</g>
	<g>
		<path fill-rule="evenodd" clip-rule="evenodd" fill="#FFFFFF" d="M21.191,11.091C21.692,11.031,22.196,11,22.697,11
			c5.812,0,10.878,4.072,12.045,9.682c0.655,3.135,0.041,6.34-1.729,9.025c-1.627,2.472-4.049,4.237-6.891,5.048L21.191,11.091z"/>
		<path fill="#303335" d="M22.697,12c5.341,0,9.995,3.737,11.066,8.887c0.6,2.871,0.037,5.809-1.585,8.271
			c-1.295,1.966-3.139,3.446-5.307,4.292l-2.224-10.67c-0.008-0.046-0.018-0.091-0.028-0.135l-0.914-4.388
			c0.188,0.059,0.389,0.09,0.597,0.09c1.104,0,2-0.896,2-2s-0.896-2-2-2c-0.501,0-0.959,0.184-1.31,0.488l-0.59-2.832
			C22.501,12.001,22.599,12,22.697,12 M22.697,10c-0.891,0-1.792,0.088-2.698,0.272l0,0l5.355,25.699
			c7.208-1.461,11.849-8.399,10.367-15.493C34.43,14.272,28.885,10,22.697,10L22.697,10z M20.031,10.265
			c0,0-0.006,0.001-0.021,0.005C20.019,10.268,20.031,10.265,20.031,10.265L20.031,10.265z M20.01,10.27L20.01,10.27L20.01,10.27
			L20.01,10.27z M20.01,10.27c-0.001,0-0.002,0-0.003,0.001C20.008,10.27,20.009,10.27,20.01,10.27L20.01,10.27z M20.007,10.271
			L20.007,10.271L20.007,10.271L20.007,10.271z M20.007,10.271c-0.001,0-0.001,0-0.002,0C20.006,10.271,20.006,10.271,20.007,10.271
			L20.007,10.271z M20.005,10.271L20.005,10.271L20.005,10.271L20.005,10.271z M20.005,10.271L20.005,10.271L20.005,10.271
			L20.005,10.271z M20.005,10.271C20.005,10.271,20.005,10.271,20.005,10.271S20.005,10.271,20.005,10.271L20.005,10.271z
			 M20.005,10.271L20.005,10.271L20.005,10.271L20.005,10.271z M20.005,10.271C20.004,10.271,20.004,10.271,20.005,10.271
			C20.004,10.271,20.004,10.271,20.005,10.271L20.005,10.271z M20.004,10.271L20.004,10.271L20.004,10.271L20.004,10.271z
			 M20.004,10.271L20.004,10.271L20.004,10.271L20.004,10.271z M20.004,10.271C20.003,10.271,20.003,10.271,20.004,10.271
			C20.003,10.271,20.003,10.271,20.004,10.271L20.004,10.271z M20.003,10.271L20.003,10.271L20.003,10.271L20.003,10.271z
			 M20.003,10.271L20.003,10.271L20.003,10.271L20.003,10.271z M20.002,10.271L20.002,10.271L20.002,10.271L20.002,10.271z
			 M20.002,10.271L20.002,10.271L20.002,10.271L20.002,10.271z M20.001,10.271L20.001,10.271L20.001,10.271L20.001,10.271z
			 M20.001,10.271L20.001,10.271L20.001,10.271L20.001,10.271z M20.001,10.271C20,10.271,20,10.271,20.001,10.271
			C20,10.271,20,10.271,20.001,10.271L20.001,10.271z M20,10.271C20,10.271,20,10.271,20,10.271S20,10.271,20,10.271L20,10.271z
			 M20,10.272L20,10.272L20,10.272L20,10.272z M20,10.272L20,10.272L20,10.272L20,10.272z M20,10.272L20,10.272L20,10.272L20,10.272
			z M20,10.272L20,10.272L20,10.272L20,10.272z M20,10.272L20,10.272L20,10.272L20,10.272z M20,10.272L20,10.272L20,10.272
			L20,10.272z M20,10.272L20,10.272L20,10.272L20,10.272z M20,10.272L20,10.272L20,10.272L20,10.272z M19.999,10.272L19.999,10.272
			L19.999,10.272L19.999,10.272z M19.999,10.272L19.999,10.272L19.999,10.272L19.999,10.272z M25.354,35.971L25.354,35.971
			L25.354,35.971L25.354,35.971z M25.354,35.971L25.354,35.971L25.354,35.971L25.354,35.971z M25.354,35.971L25.354,35.971
			L25.354,35.971L25.354,35.971z M25.354,35.971C25.354,35.972,25.354,35.972,25.354,35.971
			C25.354,35.972,25.354,35.972,25.354,35.971L25.354,35.971z M25.354,35.972L25.354,35.972L25.354,35.972L25.354,35.972z
			 M25.354,35.972C25.354,35.972,25.354,35.972,25.354,35.972S25.354,35.972,25.354,35.972L25.354,35.972z M25.354,35.973
			L25.354,35.973L25.354,35.973L25.354,35.973z M25.354,35.973L25.354,35.973L25.354,35.973L25.354,35.973z M25.354,35.973
			L25.354,35.973L25.354,35.973L25.354,35.973z M25.354,35.974L25.354,35.974L25.354,35.974L25.354,35.974z M25.354,35.974
			L25.354,35.974L25.354,35.974L25.354,35.974z M25.354,35.974C25.354,35.975,25.354,35.975,25.354,35.974
			C25.354,35.975,25.354,35.975,25.354,35.974L25.354,35.974z M25.354,35.975L25.354,35.975L25.354,35.975L25.354,35.975z
			 M25.354,35.975c0,0.001,0,0.001,0,0.002C25.354,35.976,25.354,35.976,25.354,35.975L25.354,35.975z M25.354,35.977L25.354,35.977
			L25.354,35.977L25.354,35.977z M25.354,35.977L25.354,35.977L25.354,35.977L25.354,35.977z M25.354,35.977
			C25.354,35.977,25.354,35.977,25.354,35.977S25.354,35.977,25.354,35.977L25.354,35.977z M25.354,35.978L25.354,35.978
			L25.354,35.978L25.354,35.978z M25.354,35.978c-0.001,0.003-0.001,0.005-0.001,0.007C25.354,35.982,25.354,35.979,25.354,35.978
			L25.354,35.978z M25.354,35.984C25.354,35.985,25.354,35.985,25.354,35.984C25.354,35.985,25.354,35.985,25.354,35.984
			L25.354,35.984z M25.354,35.985L25.354,35.985L25.354,35.985L25.354,35.985z M25.354,35.986L25.354,35.986L25.354,35.986
			L25.354,35.986z M25.354,35.986c0,0.004,0,0.007,0,0.009C25.354,35.992,25.354,35.989,25.354,35.986L25.354,35.986z
			 M25.354,35.995C25.354,35.995,25.354,35.995,25.354,35.995S25.354,35.995,25.354,35.995L25.354,35.995z M25.353,35.995
			c0,0.003,0,0.004,0,0.004S25.353,35.998,25.353,35.995L25.353,35.995z"/>
	</g>
	<path fill-rule="evenodd" clip-rule="evenodd" fill="#FFFFFF" d="M15.997,7c0.554,0,1.001,0.447,1.001,1s-0.448,1-1.001,1
		C15.448,9,15,8.553,15,8S15.448,7,15.997,7z"/>
	<path fill-rule="evenodd" clip-rule="evenodd" fill="#FFFFFF" d="M19.999,7C20.552,7,21,7.447,21,8s-0.448,1-1.001,1
		c-0.55,0-0.998-0.447-0.998-1S19.449,7,19.999,7z"/>
</g>
<g id="Layer_1">
	<g>
		<g>
			<path fill-rule="evenodd" clip-rule="evenodd" fill="#303335" d="M15.501,0C14.671,0,14,0.672,14,1.502
				c0,0.65,0.419,1.2,1.001,1.406v2.595c0,0.272,0.224,0.497,0.5,0.497c0.272,0,0.497-0.224,0.497-0.497V2.909
				c0.581-0.206,1.001-0.755,1.001-1.407C16.999,0.672,16.328,0,15.501,0z M20.498,0c-0.825,0-1.497,0.672-1.497,1.502
				c0,0.65,0.418,1.199,0.997,1.406v2.596c0,0.272,0.224,0.497,0.5,0.497c0.277,0,0.501-0.224,0.501-0.497V2.908
				C21.581,2.701,22,2.152,22,1.502C22,0.672,21.328,0,20.498,0z M9.5,12c-0.83,0-1.501,0.674-1.501,1.5
				c0,0.826,0.671,1.502,1.501,1.502s1.501-0.676,1.501-1.502C11.001,12.674,10.33,12,9.5,12z M3.498,23.001
				C2.671,23.001,2,23.669,2,24.499s0.671,1.497,1.498,1.497c0.83,0,1.501-0.667,1.501-1.497S4.328,23.001,3.498,23.001z
				 M7.498,26.997C6.671,26.997,6,27.673,6,28.503C6,29.325,6.671,30,7.498,30c0.83,0,1.501-0.675,1.501-1.497
				C8.999,27.673,8.328,26.997,7.498,26.997z M8.499,18c-0.826,0-1.498,0.672-1.498,1.502s0.671,1.497,1.498,1.497
				c0.83,0,1.501-0.667,1.501-1.497S9.329,18,8.499,18z M32.498,23.001c-0.825,0-1.497,0.668-1.497,1.498s0.672,1.497,1.497,1.497
				c0.83,0,1.502-0.667,1.502-1.497S33.328,23.001,32.498,23.001z M27.998,13.5c0-0.826-0.672-1.5-1.497-1.5
				c-0.831,0-1.502,0.674-1.502,1.5c0,0.826,0.671,1.502,1.502,1.502C27.326,15.001,27.998,14.326,27.998,13.5z M28.498,26.997
				c-0.825,0-1.497,0.676-1.497,1.506c0,0.822,0.672,1.497,1.497,1.497C29.328,30,30,29.325,30,28.503
				C30,27.673,29.328,26.997,28.498,26.997z M28.999,19.502c0-0.83-0.672-1.502-1.502-1.502C26.672,18,26,18.672,26,19.502
				s0.672,1.497,1.497,1.497C28.327,20.999,28.999,20.332,28.999,19.502z"/>
		</g>
	</g>
</g>
</svg>
