<?xml version="1.0" encoding="utf-8"?>
<!-- Generator: Adobe Illustrator 16.0.0, SVG Export Plug-In . SVG Version: 6.00 Build 0)  -->
<!DOCTYPE svg PUBLIC "-//W3C//DTD SVG 1.1//EN" "http://www.w3.org/Graphics/SVG/1.1/DTD/svg11.dtd">
<svg version="1.1" id="Layer_1" xmlns="http://www.w3.org/2000/svg" xmlns:xlink="http://www.w3.org/1999/xlink" x="0px" y="0px"
	 width="32px" height="32px" viewBox="0 0 32 32" enable-background="new 0 0 32 32" xml:space="preserve">
<path fill="#303335" d="M9.438,3.5h13.125c0.518,0,0.938,0.414,0.938,0.927v23.147c0,0.512-0.42,0.926-0.938,0.926H9.438
	c-0.518,0-0.938-0.414-0.938-0.926V4.427C8.5,3.914,8.919,3.5,9.438,3.5z"/>
<path fill="#FFFFFF" d="M10.844,5.907h10.312c0.519,0,0.937,0.415,0.937,0.926V23.5c0,0.512-0.418,0.927-0.937,0.927H10.844
	c-0.518,0-0.938-0.415-0.938-0.927V6.833C9.906,6.322,10.327,5.907,10.844,5.907z"/>
<path fill="#FFFFFF" d="M16,25.028c0.777,0,1.405,0.62,1.405,1.389c0,0.765-0.629,1.388-1.405,1.388
	c-0.777,0-1.406-0.621-1.406-1.388S15.223,25.028,16,25.028z"/>
<path fill="#FFFFFF" d="M13.94,4.698h4.122c0.125,0,0.229,0.101,0.229,0.225c0,0.125-0.104,0.227-0.229,0.227H13.94
	c-0.127,0-0.229-0.101-0.229-0.227C13.711,4.799,13.813,4.698,13.94,4.698z"/>
</svg>
