<?xml version="1.0" encoding="utf-8"?>
<!-- Generator: Adobe Illustrator 16.0.0, SVG Export Plug-In . SVG Version: 6.00 Build 0)  -->
<!DOCTYPE svg PUBLIC "-//W3C//DTD SVG 1.1//EN" "http://www.w3.org/Graphics/SVG/1.1/DTD/svg11.dtd">
<svg version="1.1" id="Layer_1" xmlns="http://www.w3.org/2000/svg" xmlns:xlink="http://www.w3.org/1999/xlink" x="0px" y="0px"
	 width="120px" height="120px" viewBox="0 0 120 120" enable-background="new 0 0 120 120" xml:space="preserve">
<path fill="#FFFFFF" d="M60,18c23.195,0,42,18.804,42,42c0,4.538-40.502-3.927-41.833,0.167c-4.144,12.737,12.737-4.143,0,0
	C56.073,61.499,64.538,102,60,102c-23.196,0-42-18.805-42-42c0-4.295,40.969,4.069,42.167,0.167c4.006-13.048-12.957,4.214,0,0
	C64.262,58.835,55.461,18,60,18z"/>
<path fill="#FFFFFF" d="M60,18v42c0,0,42-4.559,42,0c0,4.561-2,13-2,13l-40,29V60c0,0-42.008,4.469-42,0c0.008-4.504,2-13,2-13
	L60,18z"/>
<path fill="#9D61DD" d="M18,47h84v26H18V47z"/>
<path fill="#9D61DD" d="M73,18v84H47V18H73z"/>
</svg>
