<?xml version="1.0" encoding="utf-8"?>
<!-- Generator: Adobe Illustrator 16.0.0, SVG Export Plug-In . SVG Version: 6.00 Build 0)  -->
<!DOCTYPE svg PUBLIC "-//W3C//DTD SVG 1.1//EN" "http://www.w3.org/Graphics/SVG/1.1/DTD/svg11.dtd">
<svg version="1.1" id="Layer_1" xmlns="http://www.w3.org/2000/svg" xmlns:xlink="http://www.w3.org/1999/xlink" x="0px" y="0px"
	 width="34px" height="33px" viewBox="0 0 34 33" enable-background="new 0 0 34 33" xml:space="preserve">
<g>
	<g>
		<path fill-rule="evenodd" clip-rule="evenodd" fill="#3A3F42" d="M33.961,22.086c-0.057-0.219-0.2-0.406-0.388-0.578
			c0.074-0.687-0.079-1.241-0.079-1.241l-7.152-4.103c0,0-5.341-11.667-5.6-12.676c-0.36-1.406-3.123-1.342-4.595-1.205
			c-0.244-0.383-0.489-0.738-0.864-1.456c-0.161-0.309-0.308-0.447-0.394-0.512c-0.529-0.441-2.507-0.424-4.744,0.079
			C8.021,0.871,6.373,1.628,6.06,2.217L6.052,2.215c-0.005,0.008-0.007,0.02-0.012,0.028C6.035,2.255,6.03,2.268,6.026,2.279
			C5.669,2.985,6.054,4.282,6.185,5.337l0.028-0.013C5.248,5.826,4.569,6.264,4.569,6.264S2.921,7.461,2.967,8.741
			c0.037,1.041,1.268,13.607,1.268,13.607l-4.229,7.287c0,0,0.132,0.56,0.525,1.115c-0.08,0.247-0.115,0.484-0.059,0.703
			c0.583,2.271,8.552,2.016,17.798-0.57C27.52,28.296,34.543,24.357,33.961,22.086z M17.013,22.43
			c-0.008,0.002-0.016,0.004-0.024,0.006C16.992,22.434,17,22.427,17,22.427S17.01,22.429,17.013,22.43z M8.738,2.854L8.723,2.851
			c0.663-0.073,1.396-0.193,2.167-0.366c0.762-0.171,1.451-0.37,2.052-0.58c0.05,0.268,0.121,0.557,0.213,0.873l2.029-0.335
			l-2.512,2.892l-0.222-0.877c-0.897-0.955-2.657-0.631-4.287-0.014l1.012-0.457C8.996,3.524,8.738,2.854,8.738,2.854z"/>
	</g>
</g>
<path fill-rule="evenodd" clip-rule="evenodd" fill="#FFFFFF" d="M15.987,22.976c7.616-2.13,14.145-2.476,14.581-0.771
	c0.438,1.703-5.382,4.811-12.997,6.941S3.428,31.622,2.99,29.918S8.372,25.106,15.987,22.976z"/>
<path fill-rule="evenodd" clip-rule="evenodd" fill="#3A3F42" d="M11.527,20.959c2.176-0.609,4.353,0.51,4.863,2.496
	c0.51,1.988-0.841,4.093-3.017,4.701c-2.176,0.609-4.353-0.509-4.863-2.496C8.001,23.672,9.351,21.567,11.527,20.959z"/>
<path fill-rule="evenodd" clip-rule="evenodd" fill="#3A3F42" d="M11.469,3.062c4.864-1.368,9.008-1.168,9.142,0.302
	c0.137,1.47-3.698,3.769-8.56,5.139c-4.864,1.369-8.947,1.708-9.083,0.238C2.832,7.272,6.606,4.432,11.469,3.062z"/>
</svg>
