<?xml version="1.0" encoding="utf-8"?>
<!-- Generator: Adobe Illustrator 15.1.0, SVG Export Plug-In . SVG Version: 6.00 Build 0)  -->
<!DOCTYPE svg PUBLIC "-//W3C//DTD SVG 1.1//EN" "http://www.w3.org/Graphics/SVG/1.1/DTD/svg11.dtd">
<svg version="1.1" id="Layer_1" xmlns="http://www.w3.org/2000/svg" xmlns:xlink="http://www.w3.org/1999/xlink" x="0px" y="0px"
	 width="34px" height="32px" viewBox="0 0 34 32" enable-background="new 0 0 34 32" xml:space="preserve">
<path fill-rule="evenodd" clip-rule="evenodd" fill="#3A3F42" d="M0,32v-4c0,0,7.026-4.444,12.24-6.667c0,0,1.359-2.777,0-5.333
	c-0.675-1.269-2.72-3.445-2.72-5.333c0-0.034-0.024-1.31,0-1.333C9.686,9.167,9.899,8.49,9.898,8c0,0.914-0.827-2.65,0.981-5.333
	C11.849,1.229,14.006,0,17.68,0c3.065,0,4.532,1.278,5.44,2.667c1.694,2.592,1.002,5.644,1.002,5.416
	c0.001,0.509,0.11,1.007,0.357,1.25c0.026,0.025,0,1.308,0,1.333c0,1.787-2.386,4.257-2.72,5.333c-0.793,2.556-1.474,4,0,5.333
	c0,0,10.2,4.778,12.24,6.667v4H0"/>
</svg>
