<?xml version="1.0" encoding="utf-8"?>
<!-- Generator: Adobe Illustrator 16.0.0, SVG Export Plug-In . SVG Version: 6.00 Build 0)  -->
<!DOCTYPE svg PUBLIC "-//W3C//DTD SVG 1.1//EN" "http://www.w3.org/Graphics/SVG/1.1/DTD/svg11.dtd">
<svg version="1.1" id="Layer_1" xmlns="http://www.w3.org/2000/svg" xmlns:xlink="http://www.w3.org/1999/xlink" x="0px" y="0px"
	 width="36px" height="36px" viewBox="0 0 36 36" enable-background="new 0 0 36 36" xml:space="preserve">
<path fill-rule="evenodd" clip-rule="evenodd" fill="#303336" d="M0.422,29.672h35.156c0.233,0,0.422,0.188,0.422,0.422v5.484
	C36,35.812,35.812,36,35.578,36H0.422C0.189,36,0,35.812,0,35.578v-5.484C0,29.86,0.189,29.672,0.422,29.672z"/>
<path fill-rule="evenodd" clip-rule="evenodd" fill="#E8EEF2" d="M31.922,31.5h1.969c0.233,0,0.422,0.188,0.422,0.422v1.969
	c0,0.233-0.188,0.422-0.422,0.422h-1.969c-0.233,0-0.422-0.188-0.422-0.422v-1.969C31.5,31.688,31.688,31.5,31.922,31.5z"/>
<path fill-rule="evenodd" clip-rule="evenodd" fill="#E8EEF2" d="M2.18,31.5h17.297c0.233,0,0.422,0.188,0.422,0.422v1.969
	c0,0.233-0.188,0.422-0.422,0.422H2.18c-0.233,0-0.422-0.188-0.422-0.422v-1.969C1.758,31.688,1.947,31.5,2.18,31.5z"/>
<path fill-rule="evenodd" clip-rule="evenodd" fill="#303336" d="M23.555,28.055v1.617H12.445v-1.617H23.555z"/>
<g>
	<rect x="1.5" y="1.5" fill-rule="evenodd" clip-rule="evenodd" fill="#E8EEF2" width="33" height="25.125"/>
	<path fill="#303336" d="M33,3v22.125H3V3H33 M35.156,0H0.844C0.378,0,0,0.378,0,0.844v26.438c0,0.466,0.378,0.844,0.844,0.844
		h34.312c0.466,0,0.844-0.378,0.844-0.844V0.844C36,0.378,35.622,0,35.156,0L35.156,0z"/>
</g>
<g>
	<g>
		<path fill-rule="evenodd" clip-rule="evenodd" fill="#303336" d="M6.056,13.521c-0.88,0-1.593,0.713-1.593,1.593
			s0.713,1.592,1.593,1.592c0.879,0,1.592-0.713,1.592-1.592S6.935,13.521,6.056,13.521z M13.382,7.724
			c-0.88,0-1.593,0.713-1.593,1.593s0.713,1.593,1.593,1.593c0.879,0,1.592-0.713,1.592-1.593S14.261,7.724,13.382,7.724z
			 M22.746,20.337c-0.88,0-1.593,0.714-1.593,1.593c0,0.88,0.713,1.593,1.593,1.593c0.879,0,1.593-0.713,1.593-1.593
			C24.339,21.051,23.625,20.337,22.746,20.337z M29.944,4.603c-0.879,0-1.593,0.713-1.593,1.593c0,0.879,0.714,1.592,1.593,1.592
			c0.88,0,1.593-0.713,1.593-1.592C31.537,5.315,30.824,4.603,29.944,4.603z"/>
	</g>
</g>
<g>
	<g>
		<path fill="none" stroke="#303336" stroke-linejoin="round" stroke-miterlimit="10" d="M8.095,13.516l0.047,0.003l3.179-2.606
			l-0.047-0.003L8.095,13.516z M15.12,11.603l5.996,8.249l0.037-0.023l-5.995-8.249L15.12,11.603z M28.787,8.673l-4.594,11.163
			l0.056,0.016l4.595-11.165L28.787,8.673z"/>
	</g>
</g>
</svg>
