<?xml version="1.0" encoding="utf-8"?>
<!-- Generator: Adobe Illustrator 17.1.0, SVG Export Plug-In . SVG Version: 6.00 Build 0)  -->
<!DOCTYPE svg PUBLIC "-//W3C//DTD SVG 1.1//EN" "http://www.w3.org/Graphics/SVG/1.1/DTD/svg11.dtd">
<svg version="1.1" id="레이어_1" xmlns="http://www.w3.org/2000/svg" xmlns:xlink="http://www.w3.org/1999/xlink" x="0px"
	 y="0px" viewBox="0 0 32 32" enable-background="new 0 0 32 32" xml:space="preserve">
<g>
	<g>
		<path d="M30,15.9L30,15.9l2-3.2L28.5,0L15.4,3.4l-2,3.3H9.6L0,16l9.6,9.3h3.9l0,0l1.9,3.2L28.5,32L32,19.3L30,15.9z M13.8,7.3
			L13.8,7.3L13.8,7.3l10-2.7L18,14.4l0,0H6.5L13.8,7.3z M13.8,24.7L13.8,24.7L13.8,24.7l-7.3-7.1h11.4l0,0l5.8,9.7L13.8,24.7z
			 M26.6,25.8l-5.8-9.7l5.8-9.7l2.7,9.6l0.5,0L29.3,16L26.6,25.8z"/>
	</g>
</g>
</svg>
