<?xml version="1.0" encoding="utf-8"?>
<!-- Generator: Adobe Illustrator 15.1.0, SVG Export Plug-In . SVG Version: 6.00 Build 0)  -->
<!DOCTYPE svg PUBLIC "-//W3C//DTD SVG 1.1//EN" "http://www.w3.org/Graphics/SVG/1.1/DTD/svg11.dtd">
<svg version="1.1" xmlns="http://www.w3.org/2000/svg" xmlns:xlink="http://www.w3.org/1999/xlink" x="0px" y="0px" width="196px"
	 height="56px" viewBox="0 0 196 56" enable-background="new 0 0 196 56" xml:space="preserve">
<g id="Layer_1">
	<path fill-rule="evenodd" clip-rule="evenodd" fill="#383838" d="M0,10.727c8.018,0,14.517,6.525,14.517,14.573
		c0,8.049-6.499,14.573-14.517,14.573V10.727z"/>
	<g>
		<g>
			<path fill-rule="evenodd" clip-rule="evenodd" fill="#383838" d="M11.095,8.133c0-1.183-0.956-2.143-2.135-2.143
				c-1.18,0-2.135,0.959-2.135,2.143c0,1.089,0.812,1.979,1.86,2.116C8.843,10.655,8.96,11.1,8.96,11.563c0,1.426-1.281,3-1.281,3
				c0,0.711,0.573,1.286,1.281,1.286c0.707,0,1.28-0.575,1.28-1.286c0,0,0.854-1.5,0.854-3c0-0.78-0.23-1.555-0.453-2.125
				C10.922,9.076,11.095,8.627,11.095,8.133z"/>
		</g>
	</g>
	<g>
		<g>
			<ellipse fill-rule="evenodd" clip-rule="evenodd" fill="#FFFFFF" cx="5.978" cy="18.42" rx="2.562" ry="2.572"/>
		</g>
	</g>
	<path fill-rule="evenodd" clip-rule="evenodd" fill="#797979" d="M0,27.444L16.322,56H0V27.444z"/>
	<path display="none" fill-rule="evenodd" clip-rule="evenodd" fill="#4B4B4B" d="M0,27.433c14.385,0,26.045,4.605,26.045,10.287
		c0,5.681-11.66,10.287-26.045,10.287V27.433z"/>
	<g opacity="0.3">
		<g>
			<polygon fill-rule="evenodd" clip-rule="evenodd" points="0,27.444 0.033,29.208 10.062,55.997 16.322,56 			"/>
		</g>
	</g>
</g>
<g id="Layer_2">
	<path fill-rule="evenodd" clip-rule="evenodd" fill="#AFDC61" d="M27.6,23.212l25.218,18.947c0,0,2.194,3.848,4.521,13.845
		l-4.904-0.005L9.27,23.595C18.906,20.906,27.6,23.212,27.6,23.212z"/>
	<path fill-rule="evenodd" clip-rule="evenodd" fill="#5BA3A4" d="M34.51,42.52l8.767-11.858l0.354,18.723L34.51,42.52z"/>
	<path fill-rule="evenodd" clip-rule="evenodd" fill="#DC9061" d="M9.27,23.595l34.361,25.789L38.65,56l-5.403,0.001L3.417,33.541
		L0,27.589v0l0,0l0,0v-0.145C0,27.444,4.984,24.578,9.27,23.595z"/>
	<path fill-rule="evenodd" clip-rule="evenodd" fill="#DE3B3B" d="M38.65,56l12.507-16.612c0,0,3.467,4.82,5.17,12.612l-2.932,4
		H38.65z"/>
	<path fill-rule="evenodd" clip-rule="evenodd" fill="#3C3B5A" d="M8.967,37.718l11.863-15.4c0,0,6.686,0.213,12.295,2.578
		L18.012,44.53L8.967,37.718z"/>
	<path fill-rule="evenodd" clip-rule="evenodd" fill="#66496A" d="M3.417,33.541l29.831,22.46L16.322,56L3.417,33.541z"/>
	<path fill-rule="evenodd" clip-rule="evenodd" fill="#F0C9B1" d="M13.27,50.69l19.855-25.794c0,0,6.43,2.593,10.152,5.765
		L24.493,56h-8.171L13.27,50.69z"/>
	<path fill-rule="evenodd" clip-rule="evenodd" fill="#38557D" d="M43.277,30.661l0.354,18.723l7.526-9.981
		C48.521,35.166,43.277,30.661,43.277,30.661z"/>
	<path fill-rule="evenodd" clip-rule="evenodd" fill="#23192E" d="M15.971,28.625l2.041,15.906l-9.045-6.813L15.971,28.625z"/>
	<path fill-rule="evenodd" clip-rule="evenodd" fill="#FFFFFF" d="M27.628,51.771L13.27,50.69L16.322,56h8.315L27.628,51.771z"/>
	<g>
		<g>
			<path fill="#FFFFFF" d="M67.878,30.787c0,1.881-0.391,3.318-1.174,4.313c-0.782,0.994-1.907,1.492-3.374,1.492
				s-2.589-0.498-3.366-1.492s-1.166-2.432-1.166-4.313V17.356h-2.806v13.568c0,2.563,0.667,4.604,2.001,6.121
				c1.333,1.518,3.112,2.275,5.337,2.275s4.007-0.758,5.346-2.275c1.338-1.518,2.008-3.559,2.008-6.121V17.356h-2.806V30.787z
				 M78.392,24.463c-0.778,0.387-1.389,1.013-1.831,1.877v-2.186h-2.393v14.789h2.599v-6.98c0-1.949,0.396-3.356,1.189-4.22
				c0.792-0.864,2.079-1.297,3.86-1.297h0.399v-2.563h-0.68C80.217,23.883,79.169,24.077,78.392,24.463z M101.484,20.265
				c-1.024-1.056-2.186-1.864-3.484-2.427c-1.3-0.563-2.658-0.845-4.075-0.845c-1.438,0-2.809,0.281-4.112,0.845
				c-1.305,0.563-2.464,1.371-3.478,2.427c-1.033,1.065-1.816,2.269-2.348,3.61s-0.797,2.762-0.797,4.26
				c0,2.703,0.787,5.05,2.362,7.041c1.574,1.988,3.686,3.295,6.334,3.918V36.32c-1.752-0.502-3.162-1.508-4.23-3.016
				c-1.068-1.506-1.602-3.24-1.602-5.201c0-1.135,0.196-2.211,0.591-3.226c0.394-1.015,0.975-1.935,1.742-2.759
				c0.738-0.794,1.582-1.404,2.532-1.832c0.949-0.428,1.951-0.641,3.005-0.641c1.043,0,2.042,0.213,2.997,0.641
				s1.796,1.038,2.524,1.832c0.748,0.804,1.319,1.719,1.713,2.744c0.394,1.024,0.591,2.105,0.591,3.24
				c0,1.99-0.539,3.732-1.617,5.224c-1.077,1.492-2.159,2.676-3.971,3.178v-4.875h-2.387v11.375h2.387v-4.063
				c2.678-0.613,4.456-1.738,6.061-3.738s2.406-4.357,2.406-7.07c0-1.488-0.271-2.902-0.812-4.244
				C103.275,22.549,102.498,21.34,101.484,20.265z M120,19.262c-1.339-1.512-3.121-2.269-5.345-2.269
				c-2.225,0-4.004,0.757-5.338,2.269c-1.334,1.514-2.001,3.556-2.001,6.129v13.552h2.806V25.452c0-1.88,0.389-3.317,1.166-4.313
				c0.777-0.994,1.9-1.492,3.367-1.492c1.466,0,2.591,0.498,3.374,1.492c0.782,0.995,1.174,2.433,1.174,4.313v0.859h-8.225v2.728
				h8.225v9.904h2.805V25.391C122.008,22.818,121.339,20.776,120,19.262z"/>
		</g>
	</g>
	<path fill-rule="evenodd" clip-rule="evenodd" fill="#3C3B5A" d="M17.641,43.531"/>
	<path fill-rule="evenodd" clip-rule="evenodd" fill="#5BA3A4" d="M34.527,42.556"/>
</g>
<g id="Layer_3">
	<g>
		<g>
			<path fill-rule="evenodd" clip-rule="evenodd" fill="#848F8E" d="M133.255,34.632c0,0.755-0.22,1.37-0.659,1.846
				c-0.439,0.475-1.008,0.713-1.704,0.713c-0.69,0-1.259-0.238-1.704-0.713c-0.446-0.476-0.669-1.091-0.669-1.846v-5.537h-1.709
				v5.225c0,1.23,0.264,2.213,0.791,2.949c0.527,0.735,1.331,1.236,2.412,1.504v4.16h1.719v-4.16
				c1.08-0.268,1.888-0.771,2.422-1.509c0.533-0.739,0.801-1.721,0.801-2.944v-5.225h-1.699V34.632z M144.876,30.354
				c-0.456-0.469-0.977-0.825-1.563-1.069s-1.205-0.366-1.855-0.366c-0.651,0-1.265,0.122-1.841,0.366s-1.096,0.601-1.558,1.069
				c-0.469,0.481-0.827,1.021-1.074,1.621c-0.248,0.599-0.371,1.23-0.371,1.895c0,0.677,0.123,1.318,0.371,1.924
				c0.247,0.605,0.605,1.146,1.074,1.621c0.462,0.469,0.981,0.825,1.558,1.069s1.189,0.366,1.841,0.366
				c0.65,0,1.27-0.122,1.855-0.366s1.106-0.601,1.563-1.069c0.462-0.469,0.815-1.008,1.06-1.616
				c0.244-0.609,0.366-1.252,0.366-1.929c0-0.664-0.122-1.299-0.366-1.904S145.338,30.823,144.876,30.354z M143.621,36.219
				c-0.596,0.647-1.317,0.972-2.163,0.972c-0.847,0-1.567-0.324-2.163-0.972c-0.596-0.648-0.894-1.438-0.894-2.368
				c0-0.925,0.298-1.709,0.894-2.354s1.316-0.967,2.163-0.967c0.853,0,1.575,0.322,2.168,0.967c0.592,0.645,0.889,1.429,0.889,2.354
				C144.515,34.781,144.217,35.57,143.621,36.219z M154.378,34.632c0,0.755-0.22,1.37-0.659,1.846
				c-0.439,0.475-1.008,0.713-1.704,0.713c-0.69,0-1.259-0.238-1.704-0.713c-0.446-0.476-0.669-1.091-0.669-1.846v-5.537h-1.709
				v5.225c0,1.393,0.367,2.496,1.104,3.311c0.735,0.813,1.722,1.221,2.959,1.221c1.243,0,2.234-0.407,2.974-1.221
				c0.738-0.814,1.108-1.918,1.108-3.311v-5.225h-1.699V34.632z M161.097,29.295c-0.515,0.25-0.918,0.655-1.211,1.216v-1.416h-1.582
				v9.58h1.719v-4.521c0-1.264,0.262-2.175,0.786-2.734c0.523-0.561,1.375-0.84,2.554-0.84h0.264v-1.66h-0.449
				C162.304,28.919,161.61,29.044,161.097,29.295z M178.763,31.497c-0.397-0.801-0.977-1.431-1.738-1.89s-1.608-0.688-2.539-0.688
				c-1.394,0-2.543,0.467-3.447,1.401c-0.905,0.934-1.357,2.117-1.357,3.55c0,0.872,0.182,1.665,0.547,2.378
				c0.364,0.713,0.892,1.307,1.582,1.782c0.364,0.254,0.771,0.45,1.221,0.591c0.449,0.14,0.901,0.21,1.357,0.21
				c0.475,0,0.929-0.054,1.362-0.161c0.433-0.107,0.845-0.272,1.235-0.493v-1.846c-0.397,0.299-0.793,0.521-1.187,0.664
				c-0.395,0.143-0.8,0.215-1.216,0.215c-0.918,0-1.674-0.316-2.266-0.947c-0.593-0.632-0.889-1.442-0.889-2.432
				c0-0.971,0.288-1.763,0.864-2.378s1.313-0.923,2.212-0.923c0.904,0,1.641,0.311,2.207,0.933c0.566,0.621,0.85,1.434,0.85,2.437
				v9.033h1.729v-8.281c0-0.859-0.041-1.508-0.122-1.943C179.086,32.271,178.951,31.868,178.763,31.497z M190.408,32.713
				c-0.082-0.434-0.217-0.832-0.405-1.196c-0.41-0.808-0.996-1.442-1.758-1.904c-0.762-0.463-1.602-0.693-2.52-0.693
				c-1.394,0-2.543,0.467-3.447,1.401c-0.905,0.934-1.357,2.117-1.357,3.55c0,0.872,0.182,1.665,0.547,2.378
				c0.364,0.713,0.892,1.307,1.582,1.782c0.364,0.254,0.771,0.45,1.221,0.591c0.449,0.14,0.901,0.21,1.357,0.21
				c0.475,0,0.929-0.054,1.362-0.161c0.433-0.107,0.845-0.272,1.235-0.493v-1.846c-0.397,0.299-0.793,0.521-1.187,0.664
				c-0.395,0.143-0.8,0.215-1.216,0.215c-0.918,0-1.674-0.316-2.266-0.947c-0.593-0.632-0.889-1.442-0.889-2.432
				c0-0.971,0.288-1.763,0.864-2.378s1.313-0.923,2.212-0.923c0.904,0,1.641,0.311,2.207,0.933c0.566,0.621,0.85,1.434,0.85,2.437
				v4.775h1.729v-4.023C190.53,33.792,190.489,33.146,190.408,32.713z M130.493,26.008c0.828,0,1.5-0.672,1.5-1.5
				c0-0.829-0.672-1.5-1.5-1.5s-1.5,0.671-1.5,1.5C128.993,25.336,129.665,26.008,130.493,26.008z M160.493,26.008
				c0.828,0,1.5-0.672,1.5-1.5c0-0.829-0.672-1.5-1.5-1.5s-1.5,0.671-1.5,1.5C158.993,25.336,159.665,26.008,160.493,26.008z
				 M179.493,23.008c-0.828,0-1.5,0.671-1.5,1.5c0,0.828,0.672,1.5,1.5,1.5s1.5-0.672,1.5-1.5
				C180.993,23.679,180.321,23.008,179.493,23.008z"/>
		</g>
	</g>
</g>
</svg>
