<?xml version="1.0" encoding="utf-8"?>
<!-- Generator: Adobe Illustrator 16.0.0, SVG Export Plug-In . SVG Version: 6.00 Build 0)  -->
<!DOCTYPE svg PUBLIC "-//W3C//DTD SVG 1.1//EN" "http://www.w3.org/Graphics/SVG/1.1/DTD/svg11.dtd">
<svg version="1.1" id="Layer_1" xmlns="http://www.w3.org/2000/svg" xmlns:xlink="http://www.w3.org/1999/xlink" x="0px" y="0px"
	 width="41px" height="35px" viewBox="0 0 41 35" enable-background="new 0 0 41 35" xml:space="preserve">
<path fill="#EB5B5B" d="M24.372,2.921c4.493,7.781,11.932,20.667,15.82,27.402c1.114,1.849,0.022,4.41-2.725,4.41
	c-8.273,0-24.258,0-32.938,0c-4.632,0-5.169-1.525-2.701-5.643C5.812,22.191,12.546,10.528,16.788,3.18
	C19.283-0.616,22.095-0.717,24.372,2.921z"/>
<path fill="#FFFFFF" d="M19.354,23.128l-0.529-9.237c-0.017-0.14-0.034-0.315-0.051-0.526s-0.042-0.424-0.075-0.641
	c-0.034-0.229-0.067-0.453-0.101-0.669s-0.067-0.401-0.101-0.555h3.979c-0.084,0.344-0.164,0.762-0.239,1.252
	c-0.075,0.491-0.113,0.87-0.113,1.138l-0.504,9.237H19.354z M21.907,28.918c-0.396,0.384-0.873,0.576-1.43,0.576
	c-0.574,0-1.047-0.188-1.417-0.563c-0.372-0.376-0.557-0.858-0.557-1.446c0-0.556,0.194-1.025,0.582-1.409s0.861-0.576,1.417-0.576
	s1.029,0.192,1.418,0.576c0.388,0.384,0.582,0.854,0.582,1.409C22.502,28.056,22.304,28.534,21.907,28.918z"/>
</svg>
